<svg xmlns="http://www.w3.org/2000/svg" xmlns:xlink="http://www.w3.org/1999/xlink" version="1.1" x="0px" y="0px" viewBox="10 -15 90 112.5" style="enable-background:new 0 0 90 90;" stroke="currentColor" xml:space="preserve"><path stroke-width="3" d="M15.6210938,52.8774414c-0.4394531,0.3344727-0.5244141,0.9614258-0.1904297,1.4013672l4.3232422,5.6904297  c0.1601563,0.2109375,0.3974609,0.3500977,0.6611328,0.3857422c0.0449219,0.0063477,0.0898438,0.0092773,0.1347656,0.0092773  c0.2167969,0,0.4296875-0.0708008,0.6054688-0.2036133l8.0747681-6.1351929  c3.8735352,11.8501587,15.0009155,20.0165405,27.5863647,20.0165405C72.8310547,74.0419922,85.859375,61.0136719,85.859375,45  S72.8310547,15.9580078,56.8164063,15.9580078c-12.5875244,0-23.7138062,8.1659546-27.5861206,20.0167236l-8.0750122-6.135376  c-0.2119141-0.1601563-0.4785156-0.2319336-0.7402344-0.1943359c-0.2636719,0.0356445-0.5009766,0.1748047-0.6611328,0.3857422  l-4.3232422,5.6904297c-0.3339844,0.4399414-0.2490234,1.0668945,0.1904297,1.4013672l4.3496094,3.3041992H5.140625  c-0.5527344,0-1,0.4477539-1,1v7.1464844c0,0.5522461,0.4472656,1,1,1h14.8300781L15.6210938,52.8774414z M56.8164063,72.0419922  c-10.0224609,0-19.0564575-5.5609131-23.7211914-14.0708618c3.5067749-6.6807251,9.618042-11.5526733,16.894104-13.4641724  c1.9246216,1.3876953,4.2785034,2.21521,6.8270874,2.21521c2.5488892,0,4.9029541-0.8274536,6.8276367-2.2150269  c7.2752075,1.9118042,13.3860474,6.7835083,16.8934326,13.4642944  C75.9373779,66.3493042,67.0299072,72.0419922,56.8164063,72.0419922z M47.1044922,35.0097656  c0-5.3554688,4.3564453-9.7124023,9.7119141-9.7124023s9.7128906,4.3569336,9.7128906,9.7124023  s-4.3574219,9.7124023-9.7128906,9.7124023S47.1044922,40.3652344,47.1044922,35.0097656z M56.8164063,17.9580078  C71.7275391,17.9580078,83.859375,30.0888672,83.859375,45c0,3.8321533-0.8062134,7.4779663-2.250061,10.7841187  c-3.6314087-6.1547241-9.3860474-10.7269287-16.1916504-12.8513794c1.9249268-2.0878906,3.1116333-4.8661499,3.1116333-7.9229736  c0-6.4580078-5.2539063-11.7124023-11.7128906-11.7124023c-6.4580078,0-11.7119141,5.2543945-11.7119141,11.7124023  c0,3.0567017,1.1866455,5.8347778,3.1112671,7.9226685c-6.8045654,2.1235352-12.5591431,6.6940308-16.1895752,12.8461914  c-0.4268188-0.9807129-0.7961426-1.9936523-1.1073608-3.0363159l9.1417236-6.9459229  C40.3085938,45.6069336,40.4550781,45.3125,40.4550781,45s-0.1464844-0.6069336-0.3945313-0.7963867l-9.1413574-6.9456177  C34.3185425,25.8659058,44.8616943,17.9580078,56.8164063,17.9580078z M6.140625,47.5732422v-5.1464844h16.7988281  c0.4296875,0,0.8105469-0.2739258,0.9472656-0.6806641c0.1376953-0.4067383,0-0.855957-0.3417969-1.1157227l-5.9169922-4.4956055  l3.1132813-4.0976563L37.8017578,45L20.7412109,57.9628906l-3.1132813-4.0976563l5.9169922-4.4956055  c0.3417969-0.2597656,0.4794922-0.7089844,0.3417969-1.1157227C23.75,47.847168,23.3691406,47.5732422,22.9394531,47.5732422  H6.140625z"/></svg>